<mxfile host="app.diagrams.net" modified="2023-11-08T16:07:22.449Z" agent="Mozilla/5.0 (Windows NT 10.0; Win64; x64) AppleWebKit/537.36 (KHTML, like Gecko) Chrome/117.0.0.0 Safari/537.36" version="22.0.8" etag="kXK6DBAMZwstW6_I1cNL" type="github">
  <diagram name="Seite-1" id="gHs9IhEJTW3uvGQf-SRA">
    <mxGraphModel>
      <root>
        <mxCell id="0" />
        <mxCell id="1" parent="0" />
      </root>
    </mxGraphModel>
  </diagram>
</mxfile>
